<?xml version="1.0" standalone="no"?>
<!DOCTYPE svg PUBLIC "-//W3C//DTD SVG 20010904//EN"
 "http://www.w3.org/TR/2001/REC-SVG-20010904/DTD/svg10.dtd">
<svg version="1.0" xmlns="http://www.w3.org/2000/svg"
 width="200.000000pt" height="200.000000pt" viewBox="0 0 200.000000 200.000000"
 preserveAspectRatio="xMidYMid meet">

<g transform="translate(0.000000,200.000000) scale(0.100000,-0.100000)"
fill="#000000" stroke="none">
<path d="M1207 1670 c-99 -25 -191 -103 -234 -198 -20 -43 -27 -73 -27 -129
l-1 -73 -35 0 c-51 0 -184 34 -269 69 -103 43 -224 126 -305 211 -38 39 -75
69 -81 66 -23 -9 -50 -108 -50 -186 0 -86 18 -139 72 -212 37 -51 33 -57 -23
-33 -49 20 -57 12 -50 -49 13 -99 72 -188 165 -248 l45 -28 -47 0 c-26 0 -47
-5 -47 -10 0 -24 41 -89 82 -130 42 -42 165 -110 200 -110 34 0 18 -18 -49
-53 -87 -45 -162 -67 -265 -75 -107 -9 -109 -24 -8 -75 188 -94 440 -111 662
-46 214 63 407 205 533 395 97 144 150 303 162 484 l6 95 55 40 c64 47 109
102 96 115 -6 6 -34 5 -74 -4 -36 -7 -66 -12 -68 -11 -2 2 11 18 28 36 41 44
74 109 62 121 -5 5 -28 0 -58 -12 -26 -12 -70 -26 -96 -31 -44 -10 -50 -8 -81
15 -79 60 -208 89 -300 66z m200 -55 c21 -9 55 -29 75 -45 41 -34 72 -37 141
-16 26 8 47 12 47 8 0 -3 -23 -26 -51 -52 -38 -35 -50 -52 -45 -65 5 -15 16
-17 71 -13 36 3 65 5 65 3 0 -1 -24 -19 -54 -39 l-53 -37 -7 -102 c-15 -243
-106 -453 -263 -614 -247 -250 -615 -342 -946 -236 l-82 26 93 23 c101 25 190
65 258 116 61 46 58 62 -18 76 -83 15 -163 56 -215 110 -24 24 -43 48 -43 53
0 5 19 9 43 9 65 0 117 18 117 40 0 14 -10 20 -42 25 -61 10 -126 43 -168 85
-60 60 -107 183 -62 165 9 -4 47 -10 85 -12 61 -5 67 -4 67 13 -1 12 -18 30
-45 46 -53 32 -99 100 -122 178 -13 45 -14 66 -5 118 6 35 13 66 16 70 3 3 34
-22 69 -55 156 -150 393 -256 592 -265 l60 -3 0 90 c1 101 19 155 74 218 85
96 231 131 348 82z"/>
<path d="M1185 1556 c-51 -24 -93 -61 -82 -72 3 -4 25 7 48 24 61 46 131 59
201 38 30 -9 61 -23 68 -31 7 -8 19 -15 27 -15 29 0 6 25 -47 53 -70 35 -144
37 -215 3z"/>
<path d="M1050 1404 c-12 -36 -7 -55 10 -38 5 5 13 24 16 42 9 44 -11 41 -26
-4z"/>
<path d="M1040 1320 c0 -11 5 -20 10 -20 6 0 10 9 10 20 0 11 -4 20 -10 20 -5
0 -10 -9 -10 -20z"/>
<path d="M1419 898 c-81 -161 -239 -308 -414 -384 -63 -27 -82 -44 -50 -44 26
0 139 55 206 100 109 75 224 204 283 317 18 36 20 53 6 53 -5 0 -19 -19 -31
-42z"/>
<path d="M771 451 c-25 -3 -46 -12 -49 -20 -4 -11 5 -13 43 -8 26 4 54 7 61 7
8 0 14 7 14 15 0 8 -6 14 -12 13 -7 0 -33 -4 -57 -7z"/>
<path d="M640 430 c0 -5 9 -10 20 -10 11 0 20 5 20 10 0 6 -9 10 -20 10 -11 0
-20 -4 -20 -10z"/>
</g>
</svg>
